<?xml version="1.0" standalone="no"?><!DOCTYPE svg PUBLIC "-//W3C//DTD SVG 1.1//EN" "http://www.w3.org/Graphics/SVG/1.1/DTD/svg11.dtd"><svg class="icon" width="64px" height="64.00px" viewBox="0 0 1024 1024" version="1.1" xmlns="http://www.w3.org/2000/svg"><path d="M102.4 0h819.2a102.4 102.4 0 0 1 102.4 102.4v819.2a102.4 102.4 0 0 1-102.4 102.4H102.4a102.4 102.4 0 0 1-102.4-102.4V102.4A102.4 102.4 0 0 1 102.4 0zM0 334.506667z" fill="#3397FA" /><path d="M689.493333 750.933333H334.506667a102.4 102.4 0 0 1-102.4-102.4V375.466667a102.4 102.4 0 0 1 102.4-102.4h354.986666a102.4 102.4 0 0 1 102.4 102.4v273.066666a102.4 102.4 0 0 1-102.4 102.4z m-27.306666-320.853333a6.826667 6.826667 0 0 0-6.826667-6.826667H566.613333a6.826667 6.826667 0 0 0-6.826666 6.826667v6.826667a6.826667 6.826667 0 0 0 6.826666 6.826666h88.746667a6.826667 6.826667 0 0 0 6.826667-6.826666v-6.826667z m61.44 75.093333a6.826667 6.826667 0 0 0-6.826667-6.826666H566.613333a6.826667 6.826667 0 0 0-6.826666 6.826666v6.826667a6.826667 6.826667 0 0 0 6.826666 6.826667h150.186667a6.826667 6.826667 0 0 0 6.826667-6.826667v-6.826667z m0 68.266667a6.826667 6.826667 0 0 0-6.826667-6.826667H566.613333a6.826667 6.826667 0 0 0-6.826666 6.826667v6.826667a6.826667 6.826667 0 0 0 6.826666 6.826666h150.186667a6.826667 6.826667 0 0 0 6.826667-6.826666v-6.826667z" fill="#FFFFFF" /><path d="M371.370667 516.949333a61.44 61.44 0 1 1 62.805333 0A102.4 102.4 0 0 1 505.173333 614.4H300.373333a102.4 102.4 0 0 1 70.997334-97.450667z" fill="#3397FA" /></svg>