<?xml version="1.0" standalone="no"?><!DOCTYPE svg PUBLIC "-//W3C//DTD SVG 1.1//EN" "http://www.w3.org/Graphics/SVG/1.1/DTD/svg11.dtd"><svg class="icon" width="64px" height="64.00px" viewBox="0 0 1024 1024" version="1.1" xmlns="http://www.w3.org/2000/svg"><path fill="#00A3FF" d="M265.216 614.4h146.944c5.12 0 19.456-12.8 19.456-25.6 0-15.36-14.336-25.6-19.456-25.6H265.216c-5.12 0-19.456 10.24-19.456 25.6 0 12.8 14.336 25.6 19.456 25.6zM268.8 460.8h233.984c6.656 0 17.92-12.8 17.92-25.6s-11.776-25.6-17.92-25.6H268.8c-6.656 0-17.92 12.8-17.92 25.6s11.776 25.6 17.92 25.6zM272.384 307.2h296.96c8.192 0 21.504-12.8 21.504-25.6s-13.312-25.6-21.504-25.6h-296.96c-8.192 0-21.504 12.8-21.504 25.6s13.312 25.6 21.504 25.6zM870.4 102.4v780.8c-15.36-7.68-33.28-12.8-51.2-12.8-38.4 0-71.68 20.48-89.6 51.2H701.44c-17.92-30.72-51.2-51.2-89.6-51.2s-71.68 20.48-89.6 51.2h-28.16c-17.92-30.72-51.2-51.2-89.6-51.2s-71.68 20.48-89.6 51.2H286.72c-17.92-30.72-51.2-51.2-89.6-51.2-17.92 0-35.84 5.12-51.2 12.8V102.4H870.4m25.6-51.2H128c-15.36 0-25.6 10.24-25.6 25.6v870.4c0 15.36 10.24 25.6 25.6 25.6h2.56c10.24 0 20.48-5.12 25.6-15.36 7.68-20.48 25.6-35.84 48.64-35.84s40.96 15.36 48.64 35.84c2.56 10.24 12.8 15.36 25.6 15.36H337.92c10.24 0 20.48-5.12 25.6-15.36 7.68-20.48 25.6-35.84 48.64-35.84s40.96 15.36 48.64 35.84c2.56 10.24 12.8 15.36 25.6 15.36h58.88c10.24 0 20.48-5.12 25.6-15.36 7.68-20.48 25.6-35.84 48.64-35.84s40.96 15.36 48.64 35.84c2.56 10.24 12.8 15.36 25.6 15.36H752.64c10.24 0 20.48-5.12 25.6-15.36 7.68-20.48 25.6-35.84 48.64-35.84s40.96 15.36 48.64 35.84c2.56 10.24 12.8 15.36 25.6 15.36h2.56c15.36 0 25.6-10.24 25.6-25.6V76.8c-7.68-15.36-17.92-25.6-33.28-25.6zM812.032 614.912c0-4.608-4.096-8.704-8.704-8.704-4.608 0-8.704 4.096-8.704 8.704 0 57.856-47.104 104.96-104.96 104.96s-104.96-47.104-104.96-104.96 47.104-104.96 104.96-104.96c35.328 0 66.048 17.408 85.504 43.52h-15.36c-4.608 0-8.704 4.096-8.704 8.704 0 4.608 4.096 8.704 8.704 8.704h30.72c4.608 0 8.704-4.096 8.704-8.704v-39.424c0-4.608-4.096-8.704-8.704-8.704s-8.704 4.096-8.704 8.704v10.752c-22.528-25.6-55.296-41.472-91.648-41.472-67.584 0-122.368 54.784-122.368 122.368s54.784 122.368 122.368 122.368c67.072 1.024 121.856-54.272 121.856-121.856zM746.496 623.616c0-4.608-4.096-8.704-8.704-8.704h-48.128v-48.128c0-4.608-4.096-8.704-8.704-8.704-4.608 0-8.704 4.096-8.704 8.704v56.832c0 4.608 4.096 8.704 8.704 8.704h56.832c4.608 0 8.704-3.584 8.704-8.704z" /></svg>