<?xml version="1.0" standalone="no"?><!DOCTYPE svg PUBLIC "-//W3C//DTD SVG 1.1//EN" "http://www.w3.org/Graphics/SVG/1.1/DTD/svg11.dtd"><svg class="icon" width="64px" height="64.00px" viewBox="0 0 1024 1024" version="1.1" xmlns="http://www.w3.org/2000/svg"><path fill="#d81e06" d="M783.872 612.352h-238.08v-230.4h238.08c18.944 0 33.792-15.36 33.792-33.792 0-18.944-15.36-33.792-33.792-33.792h-233.984l257.536-251.392c8.704-8.192 12.288-20.992 9.728-32.768-3.072-11.776-12.288-20.992-24.064-24.576-11.776-3.072-24.576 0-32.768 8.704l-246.272 240.128-250.88-240.64C254.464 5.632 241.664 2.56 230.4 5.632c-11.776 3.584-20.48 12.8-23.552 24.576-3.072 11.776 0.512 24.064 9.216 32.256l262.144 250.88H239.616c-18.944 0-33.792 15.36-33.792 33.792s15.36 33.792 33.792 33.792h238.08v230.4H239.616c-18.944 0-33.792 15.36-33.792 33.792 0 18.944 15.36 33.792 33.792 33.792h238.08v306.688c0 18.944 15.36 33.792 33.792 33.792 18.944 0 33.792-15.36 33.792-33.792v-306.688H783.36c18.944 0 33.792-15.36 33.792-33.792 0.512-17.408-14.848-32.768-33.28-32.768z m0 0" /></svg>