<?xml version="1.0" standalone="no"?><!DOCTYPE svg PUBLIC "-//W3C//DTD SVG 1.1//EN" "http://www.w3.org/Graphics/SVG/1.1/DTD/svg11.dtd"><svg t="1603955117171" class="icon" viewBox="0 0 1024 1024" version="1.1" xmlns="http://www.w3.org/2000/svg" p-id="3352" xmlns:xlink="http://www.w3.org/1999/xlink" width="64" height="64"><defs><style type="text/css"></style></defs><path d="M512 0c282.8 0 512 229.2 512 512s-229.2 512-512 512S0 794.8 0 512 229.2 0 512 0z" fill="#F1AC2F" p-id="3353"></path><path d="M512 682.7c-23.6 0-42.7 19.1-42.7 42.7S488.4 768 512 768s42.7-19.1 42.7-42.7-19.1-42.6-42.7-42.6z m0-426.7c-23.6 0-42.7 19.1-42.7 42.7v298.7c0 23.6 19.1 42.7 42.7 42.7s42.7-19.1 42.7-42.7V298.7c0-23.6-19.1-42.7-42.7-42.7z" fill="#FFFFFF" p-id="3354"></path></svg>